{
  "accessors": [
    {
      "bufferView": 2,
      "componentType": 5126,
      "count": 65532,
      "max": [
        0.7388539910316467,
        2.266050100326538,
        0.19988200068473816
      ],
      "min": [
        0.2703239917755127,
        1.66669499874115,
        -7.100000220816582e-05
      ],
      "type": "VEC3"
    },
    {
      "bufferView": 2,
      "byteOffset": 786384,
      "componentType": 5126,
      "count": 65532,
      "max": [
        0.9999471306800842,
        0.9996473789215088,
        0.9999975562095642
      ],
      "min": [
        -0.9999642968177795,
        -0.999994158744812,
        -0.9999954104423523
      ],
      "type": "VEC3"
    },
    {
      "bufferView": 1,
      "componentType": 5126,
      "count": 65532,
      "max": [
        0.9990209937095642,
        0.9999740123748779
      ],
      "min": [
        0.0002809999859891832,
        0.005007000174373388
      ],
      "type": "VEC2"
    },
    {
      "bufferView": 0,
      "componentType": 5125,
      "count": 205329,
      "type": "SCALAR"
    },
    {
      "bufferView": 2,
      "byteOffset": 1572768,
      "componentType": 5126,
      "count": 65532,
      "max": [
        0.6966149806976318,
        2.4717319011688232,
        0.19898800551891327
      ],
      "min": [
        -0.03410699963569641,
        1.6803640127182007,
        0.0038389998953789473
      ],
      "type": "VEC3"
    },
    {
      "bufferView": 2,
      "byteOffset": 2359152,
      "componentType": 5126,
      "count": 65532,
      "max": [
        0.9999523758888245,
        0.9992423057556152,
        0.9999975562095642
      ],
      "min": [
        -0.9998682737350464,
        -0.9999791383743286,
        -0.9999954104423523
      ],
      "type": "VEC3"
    },
    {
      "bufferView": 1,
      "byteOffset": 524256,
      "componentType": 5126,
      "count": 65532,
      "max": [
        0.9990170001983643,
        0.9998059868812561
      ],
      "min": [
        0.0021639999467879534,
        0.0059710000641644
      ],
      "type": "VEC2"
    },
    {
      "bufferView": 0,
      "byteOffset": 821316,
      "componentType": 5125,
      "count": 206523,
      "type": "SCALAR"
    },
    {
      "bufferView": 2,
      "byteOffset": 3145536,
      "componentType": 5126,
      "count": 65532,
      "max": [
        0.3814229965209961,
        2.5527679920196533,
        0.19115500152111053
      ],
      "min": [
        -0.22383899986743927,
        1.8759609460830688,
        -0.01923700049519539
      ],
      "type": "VEC3"
    },
    {
      "bufferView": 2,
      "byteOffset": 3931920,
      "componentType": 5126,
      "count": 65532,
      "max": [
        0.9969704747200012,
        0.9995867013931274,
        0.9999996423721313
      ],
      "min": [
        -0.9994465708732605,
        -0.9999433755874634,
        -0.9999992251396179
      ],
      "type": "VEC3"
    },
    {
      "bufferView": 1,
      "byteOffset": 1048512,
      "componentType": 5126,
      "count": 65532,
      "max": [
        0.9909899830818176,
        0.9977499842643738
      ],
      "min": [
        0.008825999684631824,
        0.014070999808609486
      ],
      "type": "VEC2"
    },
    {
      "bufferView": 0,
      "byteOffset": 1647408,
      "componentType": 5125,
      "count": 283323,
      "type": "SCALAR"
    },
    {
      "bufferView": 2,
      "byteOffset": 4718304,
      "componentType": 5126,
      "count": 65532,
      "max": [
        0.26746898889541626,
        2.6500720977783203,
        0.18767699599266052
      ],
      "min": [
        -0.28054800629615784,
        1.9740780591964722,
        -0.019586000591516495
      ],
      "type": "VEC3"
    },
    {
      "bufferView": 2,
      "byteOffset": 5504688,
      "componentType": 5126,
      "count": 65532,
      "max": [
        0.999921977519989,
        0.9999840259552002,
        0.9999954700469971
      ],
      "min": [
        -0.999963104724884,
        -0.9998249411582947,
        -0.9999881982803345
      ],
      "type": "VEC3"
    },
    {
      "bufferView": 1,
      "byteOffset": 1572768,
      "componentType": 5126,
      "count": 65532,
      "max": [
        0.99686598777771,
        0.9976159930229187
      ],
      "min": [
        0.014073999598622322,
        0.009862000122666359
      ],
      "type": "VEC2"
    },
    {
      "bufferView": 0,
      "byteOffset": 2780700,
      "componentType": 5125,
      "count": 233421,
      "type": "SCALAR"
    },
    {
      "bufferView": 2,
      "byteOffset": 6291072,
      "componentType": 5126,
      "count": 65533,
      "max": [
        0.7363460063934326,
        2.6742990016937256,
        0.215488001704216
      ],
      "min": [
        -0.29538699984550476,
        1.6602389812469482,
        -0.01708799973130226
      ],
      "type": "VEC3"
    },
    {
      "bufferView": 2,
      "byteOffset": 7077468,
      "componentType": 5126,
      "count": 65533,
      "max": [
        0.9999710321426392,
        0.9999166131019592,
        0.9999961853027344
      ],
      "min": [
        -0.9999977946281433,
        -0.9999586343765259,
        -0.9999459385871887
      ],
      "type": "VEC3"
    },
    {
      "bufferView": 1,
      "byteOffset": 2097024,
      "componentType": 5126,
      "count": 65533,
      "max": [
        0.9990230202674866,
        0.9999740123748779
      ],
      "min": [
        0.0002640000020619482,
        0.00025400001322850585
      ],
      "type": "VEC2"
    },
    {
      "bufferView": 0,
      "byteOffset": 3714384,
      "componentType": 5125,
      "count": 162459,
      "type": "SCALAR"
    },
    {
      "bufferView": 2,
      "byteOffset": 7863864,
      "componentType": 5126,
      "count": 65532,
      "max": [
        0.44193699955940247,
        2.6389169692993164,
        0.19197200238704681
      ],
      "min": [
        -0.2680310010910034,
        1.8018770217895508,
        -0.018084000796079636
      ],
      "type": "VEC3"
    },
    {
      "bufferView": 2,
      "byteOffset": 8650248,
      "componentType": 5126,
      "count": 65532,
      "max": [
        0.9999626278877258,
        0.999927282333374,
        0.999999463558197
      ],
      "min": [
        -0.9998781085014343,
        -0.9999966025352478,
        -0.9999974370002747
      ],
      "type": "VEC3"
    },
    {
      "bufferView": 1,
      "byteOffset": 2621288,
      "componentType": 5126,
      "count": 65532,
      "max": [
        0.9985629916191101,
        0.9999740123748779
      ],
      "min": [
        0.005032000131905079,
        0.010749000124633312
      ],
      "type": "VEC2"
    },
    {
      "bufferView": 0,
      "byteOffset": 4364220,
      "componentType": 5125,
      "count": 226518,
      "type": "SCALAR"
    },
    {
      "bufferView": 2,
      "byteOffset": 9436632,
      "componentType": 5126,
      "count": 65532,
      "max": [
        0.5480200052261353,
        2.4312360286712646,
        0.19545499980449677
      ],
      "min": [
        0.02228200063109398,
        1.7455739974975586,
        -0.017514999955892563
      ],
      "type": "VEC3"
    },
    {
      "bufferView": 2,
      "byteOffset": 10223016,
      "componentType": 5126,
      "count": 65532,
      "max": [
        0.999785840511322,
        0.9994887709617615,
        0.9999980926513672
      ],
      "min": [
        -0.99978107213974,
        -0.9998884797096252,
        -0.9999999403953552
      ],
      "type": "VEC3"
    },
    {
      "bufferView": 1,
      "byteOffset": 3145544,
      "componentType": 5126,
      "count": 65532,
      "max": [
        0.996953010559082,
        0.9996230006217957
      ],
      "min": [
        0.008992999792098999,
        0.0021559998858720064
      ],
      "type": "VEC2"
    },
    {
      "bufferView": 0,
      "byteOffset": 5270292,
      "componentType": 5125,
      "count": 242757,
      "type": "SCALAR"
    },
    {
      "bufferView": 2,
      "byteOffset": 11009400,
      "componentType": 5126,
      "count": 65532,
      "max": [
        0.6465240120887756,
        2.3558669090270996,
        0.19750599563121796
      ],
      "min": [
        0.126459002494812,
        1.707846999168396,
        -0.01634800061583519
      ],
      "type": "VEC3"
    },
    {
      "bufferView": 2,
      "byteOffset": 11795784,
      "componentType": 5126,
      "count": 65532,
      "max": [
        0.9999441504478455,
        0.9999815821647644,
        0.9999966025352478
      ],
      "min": [
        -0.9999845623970032,
        -0.999934732913971,
        -0.9999988675117493
      ],
      "type": "VEC3"
    },
    {
      "bufferView": 1,
      "byteOffset": 3669800,
      "componentType": 5126,
      "count": 65532,
      "max": [
        0.9990180134773254,
        0.9999639987945557
      ],
      "min": [
        0.004058000165969133,
        0.0012029999634250998
      ],
      "type": "VEC2"
    },
    {
      "bufferView": 0,
      "byteOffset": 6241320,
      "componentType": 5125,
      "count": 231891,
      "type": "SCALAR"
    },
    {
      "bufferView": 2,
      "byteOffset": 12582168,
      "componentType": 5126,
      "count": 35659,
      "max": [
        0.6711779832839966,
        2.285264015197754,
        0.19850699603557587
      ],
      "min": [
        0.22675299644470215,
        1.692113995552063,
        0.003275000024586916
      ],
      "type": "VEC3"
    },
    {
      "bufferView": 2,
      "byteOffset": 13010076,
      "componentType": 5126,
      "count": 35659,
      "max": [
        0.9999728798866272,
        0.998900830745697,
        0.9999630451202393
      ],
      "min": [
        -0.9994808435440063,
        -0.9999758005142212,
        -0.9999998211860657
      ],
      "type": "VEC3"
    },
    {
      "bufferView": 1,
      "byteOffset": 4194056,
      "componentType": 5126,
      "count": 35659,
      "max": [
        0.9986079931259155,
        0.9995480179786682
      ],
      "min": [
        0.0030980000738054514,
        0.007884999737143517
      ],
      "type": "VEC2"
    },
    {
      "bufferView": 0,
      "byteOffset": 7168884,
      "componentType": 5125,
      "count": 97968,
      "type": "SCALAR"
    }
  ],
  "asset": {
    "extras": {
      "author": "makeademic (https://sketchfab.com/makeademic)",
      "license": "COPYRIGHT TO makeademic",
      "source": "https://sketchfab.com/3d-models/f-book-treasure-binding-d430125bedb5437f9bf725738de1a987",
      "title": "F Book Treasure Binding"
    },
    "generator": "Sketchfab-12.29.0",
    "version": "2.0"
  },
  "bufferViews": [
    {
      "buffer": 0,
      "byteLength": 7560756,
      "name": "floatBufferViews",
      "target": 34963
    },
    {
      "buffer": 0,
      "byteLength": 4479328,
      "byteOffset": 7560756,
      "byteStride": 8,
      "name": "floatBufferViews",
      "target": 34962
    },
    {
      "buffer": 0,
      "byteLength": 13437984,
      "byteOffset": 12040084,
      "byteStride": 12,
      "name": "floatBufferViews",
      "target": 34962
    }
  ],
  "buffers": [
    {
      "byteLength": 25478068,
      "uri": "scene.bin"
    }
  ],
  "images": [
    {
      "uri": "textures/FBookCloudyTextured_baseColor.jpeg"
    }
  ],
  "materials": [
    {
      "doubleSided": true,
      "name": "FBookCloudyTextured",
      "pbrMetallicRoughness": {
        "baseColorTexture": {
          "index": 0
        },
        "metallicFactor": 0.0
      }
    }
  ],
  "meshes": [
    {
      "name": "Object_0",
      "primitives": [
        {
          "attributes": {
            "NORMAL": 1,
            "POSITION": 0,
            "TEXCOORD_0": 2
          },
          "indices": 3,
          "material": 0,
          "mode": 4
        }
      ]
    },
    {
      "name": "Object_1",
      "primitives": [
        {
          "attributes": {
            "NORMAL": 5,
            "POSITION": 4,
            "TEXCOORD_0": 6
          },
          "indices": 7,
          "material": 0,
          "mode": 4
        }
      ]
    },
    {
      "name": "Object_2",
      "primitives": [
        {
          "attributes": {
            "NORMAL": 9,
            "POSITION": 8,
            "TEXCOORD_0": 10
          },
          "indices": 11,
          "material": 0,
          "mode": 4
        }
      ]
    },
    {
      "name": "Object_3",
      "primitives": [
        {
          "attributes": {
            "NORMAL": 13,
            "POSITION": 12,
            "TEXCOORD_0": 14
          },
          "indices": 15,
          "material": 0,
          "mode": 4
        }
      ]
    },
    {
      "name": "Object_4",
      "primitives": [
        {
          "attributes": {
            "NORMAL": 17,
            "POSITION": 16,
            "TEXCOORD_0": 18
          },
          "indices": 19,
          "material": 0,
          "mode": 4
        }
      ]
    },
    {
      "name": "Object_5",
      "primitives": [
        {
          "attributes": {
            "NORMAL": 21,
            "POSITION": 20,
            "TEXCOORD_0": 22
          },
          "indices": 23,
          "material": 0,
          "mode": 4
        }
      ]
    },
    {
      "name": "Object_6",
      "primitives": [
        {
          "attributes": {
            "NORMAL": 25,
            "POSITION": 24,
            "TEXCOORD_0": 26
          },
          "indices": 27,
          "material": 0,
          "mode": 4
        }
      ]
    },
    {
      "name": "Object_7",
      "primitives": [
        {
          "attributes": {
            "NORMAL": 29,
            "POSITION": 28,
            "TEXCOORD_0": 30
          },
          "indices": 31,
          "material": 0,
          "mode": 4
        }
      ]
    },
    {
      "name": "Object_8",
      "primitives": [
        {
          "attributes": {
            "NORMAL": 33,
            "POSITION": 32,
            "TEXCOORD_0": 34
          },
          "indices": 35,
          "material": 0,
          "mode": 4
        }
      ]
    }
  ],
  "nodes": [
    {
      "children": [
        1
      ],
      "matrix": [
        1.3883295068720969,
        -0.9666138820543324,
        -2.1463139755580505e-16,
        0.0,
        -0.9666138820543324,
        -1.3883295068720969,
        -9.656231055000458e-16,
        0.0,
        3.756297306519243e-16,
        9.155974684640655e-16,
        -1.6916859149932861,
        0.0,
        1.260237216949463,
        2.01471495628357,
        -2.0693190097808833,
        1.0
      ],
      "name": "Sketchfab_model"
    },
    {
      "children": [
        2,
        3,
        4,
        5,
        6,
        7,
        8,
        9,
        10
      ],
      "name": "FBookCloudyTextured.obj.cleaner.materialmerger.gles"
    },
    {
      "mesh": 0,
      "name": "Object_2"
    },
    {
      "mesh": 1,
      "name": "Object_3"
    },
    {
      "mesh": 2,
      "name": "Object_4"
    },
    {
      "mesh": 3,
      "name": "Object_5"
    },
    {
      "mesh": 4,
      "name": "Object_6"
    },
    {
      "mesh": 5,
      "name": "Object_7"
    },
    {
      "mesh": 6,
      "name": "Object_8"
    },
    {
      "mesh": 7,
      "name": "Object_9"
    },
    {
      "mesh": 8,
      "name": "Object_10"
    }
  ],
  "samplers": [
    {
      "magFilter": 9729,
      "minFilter": 9987,
      "wrapS": 10497,
      "wrapT": 10497
    }
  ],
  "scene": 0,
  "scenes": [
    {
      "name": "Sketchfab_Scene",
      "nodes": [
        0
      ]
    }
  ],
  "textures": [
    {
      "sampler": 0,
      "source": 0
    }
  ]
}
